{"title":"October 2018 Hindi 1080p BluRay x264 DTS [MW]","magnet":"magnet:?xt=urn:btih:2c341e7f901c609557f34c87778aef4ec2fdbe1b&dn=October+2018+Hindi+1080p+BluRay+x264+DTS+%5BMW%5D&tr=udp%3A%2F%2Ftracker.leechers-paradise.org%3A6969&tr=udp%3A%2F%2Fzer0day.ch%3A1337&tr=udp%3A%2F%2Fopen.demonii.com%3A1337&tr=udp%3A%2F%2Ftracker.coppersurfer.tk%3A6969&tr=udp%3A%2F%2Fexodus.desync.com%3A6969","uploader":"MFreaky","categoryP":"video","categoryS":"hd___movies","size":"2361844615","seeders":"2","leechers":"1","description":" <a href=\"https://pichub.site/image/DnoYj\" rel=\"nofollow\" target=\"_NEW\">https://pichub.site/image/DnoYj</a> <a href=\"\nhttps://pichub.site/image/DnLsh\" rel=\"nofollow\" target=\"_NEW\">\nhttps://pichub.site/image/DnLsh</a> <a href=\"\nhttps://pichub.site/image/Dnpzr\" rel=\"nofollow\" target=\"_NEW\">\nhttps://pichub.site/image/Dnpzr</a> <a href=\"\nhttps://pichub.site/image/Dn25k\" rel=\"nofollow\" target=\"_NEW\">\nhttps://pichub.site/image/Dn25k</a> <a href=\"\nhttps://pichub.site/image/Dn6wv\" rel=\"nofollow\" target=\"_NEW\">\nhttps://pichub.site/image/Dn6wv</a>\r\n\r\nIMDB <a href=\"\nhttps://www.imdb.com/title/tt7700730/\" rel=\"nofollow\" target=\"_NEW\">\nhttps://www.imdb.com/title/tt7700730/</a>\r\n\r\nVideo\r\nID                                       : 1\r\nFormat                                   : AVC\r\nFormat/Info                              : Advanced Video Codec\r\nFormat profile                           : High@L4.1\r\nFormat settings                          : CABAC / 4 Ref Frames\r\nFormat settings, CABAC                   : Yes\r\nFormat settings, RefFrames               : 4 frames\r\nCodec ID                                 : V_MPEG4/ISO/AVC\r\nDuration                                 : 1 h 55 min\r\nBit rate                                 : 2 000 kb/s\r\nWidth                                    : 1 920 pixels\r\nHeight                                   : 804 pixels\r\nDisplay aspect ratio                     : 2.40:1\r\nFrame rate mode                          : Constant\r\nFrame rate                               : 24.000 FPS\r\nColor space                              : YUV\r\nChroma subsampling                       : 4:2:0\r\nBit depth                                : 8 bits\r\nScan type                                : Progressive\r\nBits/(Pixel*Frame)                       : 0.054\r\nStream size                              : 1.58 GiB (72%)\r\nWriting library                          : x264 core 155 r2901 7d0ff22\r\nDefault                                  : Yes\r\nForced                                   : No\r\n\r\nAudio\r\nID                                       : 2\r\nFormat                                   : DTS\r\nFormat/Info                              : Digital Theater Systems\r\nCodec ID                                 : A_DTS\r\nDuration                                 : 1 h 55 min\r\nBit rate mode                            : Constant\r\nBit rate                                 : 756 kb/s\r\nChannel(s)                               : 6 channels\r\nChannel positions                        : Front: L C R, Side: L R, LFE\r\nSampling rate                            : 48.0 kHz\r\nFrame rate                               : 93.750 FPS (512 SPF)\r\nBit depth                                : 16 bits\r\nCompression mode                         : Lossy\r\nStream size                              : 625 MiB (28%)\r\nLanguage                                 : Hindi\r\nDefault                                  : Yes\r\nForced                                   : No","last_updated":"2018-09-09T12:05:13.559Z","parsed":{"xt":"urn:btih:2c341e7f901c609557f34c87778aef4ec2fdbe1b","dn":"October 2018 Hindi 1080p BluRay x264 DTS [MW]","tr":["udp://exodus.desync.com:6969","udp://open.demonii.com:1337","udp://tracker.coppersurfer.tk:6969","udp://tracker.leechers-paradise.org:6969","udp://zer0day.ch:1337"],"infoHash":"2c341e7f901c609557f34c87778aef4ec2fdbe1b","infoHashBuffer":{"type":"Buffer","data":[44,52,30,127,144,28,96,149,87,243,76,135,119,138,239,78,194,253,190,27]},"name":"October 2018 Hindi 1080p BluRay x264 DTS [MW]","announce":["udp://exodus.desync.com:6969","udp://open.demonii.com:1337","udp://tracker.coppersurfer.tk:6969","udp://tracker.leechers-paradise.org:6969","udp://zer0day.ch:1337"],"urlList":[]}}